PathFileType	4	(X/Y/Z)	C:/Users/beibeiliu/ov580/test_trc/User2\sequence.9_training_dense_right.trc
DataRate	CameraRate	NumFrames	NumMarkers	Units	OrigDataRate	OrigDataStartFrame	OrigNumFrames
120	120	10	19	mm	120	221	353
Frame#	Time	ThumbCMC			ThumbMCP			ThumbIP			ThumbTip			IndexMCP			IndexPIP			IndexTip			MiddleMCP			MiddlePIP			MiddleTip			RingMCP			RingPIP			RingTip			PinkyMCP			PinkyPIP			PinkyTip			BackHand1			BackHand2			BackHand3	
		X0	Y0	Z0	X1	Y1	Z1	X2	Y2	Z2	X3	Y3	Z3	X4	Y4	Z4	X5	Y5	Z5	X6	Y6	Z6	X7	Y7	Z7	X8	Y8	Z8	X9	Y9	Z9	X10	Y10	Z10	X11	Y11	Z11	X12	Y12	Z12	X13	Y13	Z13	X14	Y14	Z14	X15	Y15	Z15	X16	Y16	Z16	X17	Y17	Z17	X18	Y18	Z18	
220	1.83333	131.509	5.91361	50.0697	127.866	9.00043	17.9596	120.832	12.8679	-16.0364	113.005	16.3986	-39.3607	75.4055	-25.3076	-14.1324	55.4749	-27.0545	-35.0864	36.8678	-29.8994	-53.5778	53.1663	-38.0959	-5.79882	35.1858	-36.9941	-30.6577	13.9043	-40.673	-49.2199	42.5226	-39.4407	13.5923	22.8989	-40.03	-7.04061	9.34638	-40.3362	-32.3258	34.9794	-34.4445	34.3636	16.125	-37.3062	14.8632	9.71913	-39.8377	-4.61747	75.0072	-41.7634	62.0407	97.852	-37.7571	87.973	109.804	-28.3286	50.3503	
221	1.84167	132.864	5.02444	50.3584	135.671	9.42456	19.8515	127.052	10.5785	-12.0251	120.657	13.4686	-38.4764	77.0603	-27.0094	-11.2546	60.6906	-28.1217	-29.8464	43.8249	-30.7546	-52.9921	57.6798	-36.1651	-3.1653	40.6133	-35.5939	-32.244	19.996	-39.3653	-52.3396	43.3121	-35.8711	14.1314	25.0734	-37.0166	-9.96408	15.0778	-37.1283	-34.0529	33.0608	-32.4732	37.1078	22.4209	-30.6124	15.1933	8.67576	-36.6845	-3.35106	77.9098	-39.0612	63.8927	97.8118	-34.957	88.9862	112.998	-29.0453	55.4598	
222	1.85	135.942	7.02114	50.2794	139.235	10.6244	23.4513	134.111	10.2148	-15.4048	130.441	16.6944	-36.1099	84.2458	-25.3314	-12.7124	66.061	-29.0344	-32.8281	52.3102	-31.5393	-52.6006	66.4337	-34.9435	-5.11317	48.2673	-36.3621	-33.3646	31.3984	-40.042	-54.7689	48.962	-35.7112	7.53759	33.5087	-36.5547	-11.5688	19.8241	-39.421	-38.7164	38.0497	-31.8081	30.511	26.7936	-31.6234	8.85169	20.1889	-35.591	-9.17829	79.3409	-37.6017	62.9431	97.7473	-33.8557	86.2635	117.11	-25.344	52.1241	
223	1.85833	138.14	12.9013	51.8277	144.012	15.6945	19.0518	139.514	19.2541	-10.2643	134.905	22.2113	-40.922	95.3982	-21.6525	-14.2388	81.5951	-26.1082	-37.2141	60.0841	-31.9026	-57.3329	74.5777	-32.9819	-11.8997	55.9456	-36.4857	-36.5974	41.7085	-40.8939	-57.6145	56.2878	-37.0973	3.43196	44.8096	-37.6266	-18.2178	30.9485	-42.0928	-43.0177	50.0327	-30.4318	31.3224	36.9456	-32.932	3.5605	24.8819	-38.2858	-16.9497	89.8435	-35.082	58.0709	105.693	-33.1767	83.9501	125.528	-21.9366	53.9124	
224	1.86667	144.412	22.1583	50.6894	145.143	25.8056	19.6481	141.66	29.628	-12.3814	137.93	35.2968	-38.3581	103.623	-17.0589	-17.3055	89.8128	-21.8838	-39.7591	72.8118	-29.2166	-63.2117	87.4974	-30.8197	-14.837	67.5367	-37.2321	-40.0302	55.7284	-42.7362	-64.0355	70.1221	-36.9731	4.32144	56.366	-41.0652	-21.8402	46.1441	-43.3608	-48.5297	60.023	-34.5429	23.5794	49.865	-36.1034	-0.356074	40.8432	-42.2308	-19.382	96.4726	-33.8482	52.7338	112.415	-28.014	81.3557	131.849	-15.7909	51.9237	
225	1.875	143.267	32.7147	48.8589	145.386	41.9426	20.9634	139.286	43.1792	-13.9715	133.072	48.8912	-37.8541	111.591	-11.0595	-19.2355	100.687	-14.6862	-46.324	82.9967	-25.201	-64.1747	97.5918	-27.0289	-19.3502	84.389	-31.8281	-46.2125	71.1584	-41.2527	-68.4406	82.0947	-38.5506	-5.31196	73.053	-39.1126	-26.6907	59.8786	-48.7017	-49.8501	75.0086	-37.1729	16.099	60.5829	-44.1332	-2.83127	55.7506	-49.4259	-28.6365	109.883	-28.4967	46.3316	122.418	-26.4214	78.075	141.059	-5.27424	49.0669	
226	1.88333	135.511	42.6252	54.5694	136.498	55.1228	19.6793	129.081	59.979	-10.2515	121.443	64.2737	-36.3296	118.812	3.57946	-20.9221	105.565	-7.67235	-45.7327	92.7642	-17.6488	-66.1693	106.963	-22.4616	-23.8817	96.5761	-25.6592	-51.3897	84.1506	-37.4978	-74.9449	98.1664	-34.853	-11.7818	88.4907	-39.6626	-30.6621	78.5828	-44.5307	-56.6944	90.0989	-40.2939	15.0832	80.102	-44.0959	-9.69966	76.7322	-50.7943	-31.3949	123.008	-28.847	42.5846	136.575	-17.7506	74.2212	143.456	7.54939	45.6441	
227	1.89167	124.849	48.9049	57.1336	119.921	66.5537	26.3844	109.428	66.7143	-6.4432	99.7919	71.2258	-26.1261	116.77	10.4159	-24.5468	106.625	3.14039	-50.9642	96.3503	-7.40126	-71.408	115.343	-12.1172	-27.2892	104.774	-15.8461	-54.1502	95.8154	-27.3539	-79.2604	111.184	-27.718	-16.6717	103.27	-32.1141	-38.6555	94.2858	-41.3764	-66.4618	105.817	-38.3514	6.48347	96.6133	-43.4736	-19.0519	92.3795	-49.5836	-40.3152	133.99	-18.9469	38.4957	146.542	-9.6184	70.5581	144.405	17.1474	47.33	
228	1.9	112.645	55.2885	56.9764	101.852	69.7069	34.2252	89.7938	68.4726	0.874541	76.9896	72.5786	-21.2041	112.321	21.5186	-21.0737	105.266	15.4201	-45.9663	96.2493	5.86227	-75.2454	118.847	-0.32827	-25.3247	108.21	-5.4562	-54.0523	101.475	-11.9779	-83.5266	120.234	-15.7762	-16.2412	112.755	-25.2872	-43.8782	105.629	-28.3889	-71.763	120.411	-35.6619	3.54855	112.581	-37.2368	-19.3997	108.537	-36.8737	-46.1204	142.586	-6.25943	37.4094	152.317	1.68961	66.3025	139.392	32.2323	43.1512	
229	1.90833	100.703	52.4	65.4048	84.2974	63.602	43.7655	69.5841	66.7241	10.4676	55.1471	67.0659	-8.10351	105.096	30.7626	-19.8417	98.1177	24.1312	-44.1899	92.9405	12.4456	-73.8613	114.709	15.7171	-25.5126	106.996	5.93503	-57.9077	100.234	0.394696	-85.5119	123.583	-3.28936	-23.0699	117.578	-10.3701	-47.1932	112.166	-14.8198	-70.2917	130.589	-23.118	-5.08418	120.05	-23.3234	-28.6582	116.865	-25.5996	-52.4947	145.398	2.84422	31.355	155.172	13.2534	66.3674	132.901	40.8802	47.042	
